<?xml version="1.0" encoding="utf-8"?>
<svg version="1.1" xmlns:xlink="http://www.w3.org/1999/xlink" width="272px" height="200px" xmlns="http://www.w3.org/2000/svg">
  <g transform="matrix(1 0 0 1 -724 -231 )">
    <path d="M 724 231  L 996 231  L 996 431  L 724 431  L 724 231  " fill-rule="nonzero" fill="#cccccc" stroke="none" />
    <path d="M 738 245  L 982 245  L 982 417  L 738 417  L 738 245  " fill-rule="nonzero" fill="#ffffff" stroke="none" />
    <path d="M 880.44 291  C 872.0400000000001 291  865.44 284.4  865.44 276  C 865.44 267.6  872.0400000000001 261  880.44 261  C 888.84 261  895.44 267.6  895.44 276  C 895.44 284.4  888.84 291  880.44 291  " fill-rule="nonzero" fill="#cccccc" stroke="none" />
    <path d="M 743 412  L 743 322.9  L 801.5 282.4  L 883.4 340.52941176470586  L 930.2 306.7  L 977 340.52941176470586  L 977 412  L 743 412  " fill-rule="nonzero" fill="#169bd5" stroke="none" />
  </g>
</svg>