<?xml version="1.0" encoding="utf-8"?>
<svg version="1.1" xmlns:xlink="http://www.w3.org/1999/xlink" width="238px" height="201px" xmlns="http://www.w3.org/2000/svg">
  <g transform="matrix(1 0 0 1 -151 -189 )">
    <path d="M 151 189  L 389 189  L 389 390  L 151 390  L 151 189  " fill-rule="nonzero" fill="#cccccc" stroke="none" />
    <path d="M 165 203  L 375 203  L 375 376  L 165 376  L 165 203  " fill-rule="nonzero" fill="#ffffff" stroke="none" />
    <path d="M 289.835 249.3  C 281.393 249.3  274.76 242.66700000000003  274.76 234.22500000000002  C 274.76 225.78300000000002  281.393 219.15  289.835 219.15  C 298.277 219.15  304.90999999999997 225.78300000000002  304.90999999999997 234.22500000000002  C 304.90999999999997 242.66700000000003  298.277 249.3  289.835 249.3  " fill-rule="nonzero" fill="#cccccc" stroke="none" />
    <path d="M 170 371  L 170 281.35  L 220 240.6  L 290 288.40420168067226  L 330 265.05  L 370 288.40420168067226  L 370 371  L 170 371  " fill-rule="nonzero" fill="#169bd5" stroke="none" />
  </g>
</svg>