<?xml version="1.0" encoding="utf-8"?>
<svg version="1.1" xmlns:xlink="http://www.w3.org/1999/xlink" width="201px" height="245px" xmlns="http://www.w3.org/2000/svg">
  <g transform="matrix(1 0 0 1 -707 -651 )">
    <path d="M 707 651  L 908 651  L 908 896  L 707 896  L 707 651  " fill-rule="nonzero" fill="#cccccc" stroke="none" />
    <path d="M 721 665  L 894 665  L 894 882  L 721 882  L 721 665  " fill-rule="nonzero" fill="#ffffff" stroke="none" />
    <path d="M 826.595 717.9  C 818.153 717.9  811.52 711.267  811.52 702.825  C 811.52 694.383  818.153 687.75  826.595 687.75  C 835.037 687.75  841.67 694.383  841.67 702.825  C 841.67 711.267  835.037 717.9  826.595 717.9  " fill-rule="nonzero" fill="#cccccc" stroke="none" />
    <path d="M 726 877  L 726 763.15  L 766.75 711.4  L 823.8 752.8  L 856.4 742.45  L 889 752.8  L 889 877  L 726 877  " fill-rule="nonzero" fill="#169bd5" stroke="none" />
  </g>
</svg>