<?xml version="1.0" encoding="utf-8"?>
<svg version="1.1" xmlns:xlink="http://www.w3.org/1999/xlink" width="177px" height="266px" xmlns="http://www.w3.org/2000/svg">
  <g transform="matrix(1 0 0 1 -511 -384 )">
    <path d="M 511 384  L 688 384  L 688 650  L 511 650  L 511 384  " fill-rule="nonzero" fill="#cccccc" stroke="none" />
    <path d="M 523 396  L 676 396  L 676 638  L 523 638  L 523 396  " fill-rule="nonzero" fill="#ffffff" stroke="none" />
    <path d="M 616.3149999999999 450.45  C 608.881 450.45  603.04 444.609  603.04 437.17499999999995  C 603.04 429.741  608.881 423.9  616.3149999999999 423.9  C 623.7489999999999 423.9  629.5899999999999 429.741  629.5899999999999 437.17499999999995  C 629.5899999999999 444.609  623.7489999999999 450.45  616.3149999999999 450.45  " fill-rule="nonzero" fill="#cccccc" stroke="none" />
    <path d="M 528 634  L 528 505.85  L 564 447.6  L 614.4 494.20000000000005  L 643.2 482.54999999999995  L 672 494.20000000000005  L 672 634  L 528 634  " fill-rule="nonzero" fill="#169bd5" stroke="none" />
  </g>
</svg>