<?xml version="1.0" encoding="utf-8"?>
<svg version="1.1" xmlns:xlink="http://www.w3.org/1999/xlink" width="300px" height="170px" xmlns="http://www.w3.org/2000/svg">
  <g transform="matrix(1 0 0 1 -204 -146 )">
    <path d="M 204 146  L 504 146  L 504 316  L 204 316  L 204 146  " fill-rule="nonzero" fill="#cccccc" stroke="none" />
    <path d="M 216 158  L 492 158  L 492 304  L 216 304  L 216 158  " fill-rule="nonzero" fill="#ffffff" stroke="none" />
    <path d="M 372.75 197  C 365.61 197  360 191.39  360 184.25  C 360 177.11  365.61 171.5  372.75 171.5  C 379.89 171.5  385.5 177.11  385.5 184.25  C 385.5 191.39  379.89 197  372.75 197  " fill-rule="nonzero" fill="#cccccc" stroke="none" />
    <path d="M 221 300  L 221 224.64999999999998  L 287.75 190.39999999999998  L 381.2 253.42000000000002  L 434.6 210.95  L 488 253.42000000000002  L 488 300  L 221 300  " fill-rule="nonzero" fill="#169bd5" stroke="none" />
  </g>
</svg>