<?xml version="1.0" encoding="utf-8"?>
<svg version="1.1" xmlns:xlink="http://www.w3.org/1999/xlink" width="263px" height="234px" xmlns="http://www.w3.org/2000/svg">
  <g transform="matrix(1 0 0 1 -715 -130 )">
    <path d="M 715 130  L 978 130  L 978 364  L 715 364  L 715 130  " fill-rule="nonzero" fill="#cccccc" stroke="none" />
    <path d="M 731 146  L 962 146  L 962 348  L 731 348  L 731 146  " fill-rule="nonzero" fill="#ffffff" stroke="none" />
    <path d="M 869.31 200.2  C 859.482 200.2  851.76 192.47799999999998  851.76 182.64999999999998  C 851.76 172.82199999999997  859.482 165.1  869.31 165.1  C 879.138 165.1  886.86 172.82199999999997  886.86 182.64999999999998  C 886.86 192.47799999999998  879.138 200.2  869.31 200.2  " fill-rule="nonzero" fill="#cccccc" stroke="none" />
    <path d="M 737 342  L 737 237.5  L 791.75 190  L 868.4 240.5703422053232  L 912.2 218.5  L 956 240.5703422053232  L 956 342  L 737 342  " fill-rule="nonzero" fill="#169bd5" stroke="none" />
  </g>
</svg>