<?xml version="1.0" encoding="utf-8"?>
<svg version="1.1" xmlns:xlink="http://www.w3.org/1999/xlink" width="211px" height="166px" xmlns="http://www.w3.org/2000/svg">
  <g transform="matrix(1 0 0 1 -804 -521 )">
    <path d="M 804 521  L 1015 521  L 1015 687  L 804 687  L 804 521  " fill-rule="nonzero" fill="#cccccc" stroke="none" />
    <path d="M 816 533  L 1003 533  L 1003 675  L 816 675  L 816 533  " fill-rule="nonzero" fill="#ffffff" stroke="none" />
    <path d="M 926.1700000000001 570.8  C 919.1980000000001 570.8  913.72 565.3219999999999  913.72 558.3499999999999  C 913.72 551.3779999999999  919.1980000000001 545.9  926.1700000000001 545.9  C 933.142 545.9  938.62 551.3779999999999  938.62 558.3499999999999  C 938.62 565.3219999999999  933.142 570.8  926.1700000000001 570.8  " fill-rule="nonzero" fill="#cccccc" stroke="none" />
    <path d="M 820 671  L 820 597.3  L 864.75 563.8  L 927.4 607.7469194312796  L 963.2 583.9  L 999 607.7469194312796  L 999 671  L 820 671  " fill-rule="nonzero" fill="#169bd5" stroke="none" />
  </g>
</svg>